
<svg version="1.0" xmlns="http://www.w3.org/2000/svg"
 width="256.000000pt" height="256.000000pt" viewBox="0 0 256.000000 256.000000"
 preserveAspectRatio="xMidYMid meet">

<g transform="translate(0.000000,256.000000) scale(0.100000,-0.100000)"
fill="#ffffff" stroke="none">
<path d="M1092 2384 c-212 -36 -428 -145 -591 -298 -163 -154 -288 -396 -326
-627 -64 -399 90 -800 407 -1053 146 -117 335 -201 519 -231 610 -99 1185 317
1284 930 76 469 -161 942 -583 1163 -223 116 -468 157 -710 116z m407 -169
c278 -68 509 -253 638 -509 46 -91 93 -250 93 -312 l0 -34 -280 0 c-217 0
-280 3 -280 13 0 6 -13 39 -29 73 -51 108 -127 176 -239 213 -147 50 -318 3
-422 -115 -32 -37 -90 -147 -90 -171 0 -10 -63 -13 -283 -13 l-284 0 9 58 c24
152 95 324 181 438 53 70 154 167 222 214 110 76 270 139 400 160 82 12 286 4
364 -15z m-145 -707 c55 -16 138 -99 154 -154 28 -94 8 -169 -63 -239 -101
-102 -229 -102 -330 0 -102 101 -102 229 0 330 70 71 145 90 239 63z m-450
-362 c10 -30 35 -76 55 -102 181 -240 542 -209 676 59 19 38 35 76 35 83 0 12
50 14 280 14 l280 0 0 -34 c0 -60 -47 -221 -89 -305 -60 -120 -93 -165 -196
-266 -129 -127 -272 -207 -451 -252 -94 -24 -332 -23 -428 0 -218 54 -420 186
-552 360 -87 115 -158 287 -182 440 l-9 57 281 0 282 0 18 -54z"/>
</g>
</svg>
